<svg width="32" height="32" viewBox="0 0 32 32" fill="none" xmlns="http://www.w3.org/2000/svg">
<g clip-path="url(#clip0)">
<path d="M32.0001 21.056C31.8721 21.888 30.9441 22.336 30.3041 22.752C29.1521 23.52 28.0321 24.256 26.8801 25.024C24.1601 26.848 21.4081 28.672 18.6881 30.496C18.0481 30.912 17.4081 31.36 16.7681 31.776C16.3201 32.096 15.7121 32.096 15.2321 31.776C13.4081 30.56 11.5521 29.312 9.72811 28.096L1.66411 22.72C0.960111 22.272 0.0321111 21.824 0.000111118 20.864C-0.0318889 19.808 0.000111118 18.72 0.000111118 17.664V12.544C0.000111118 11.616 -0.191889 10.528 0.672111 9.95199C2.72011 8.54399 4.80011 7.19999 6.88011 5.82399C9.44011 4.12799 12.0001 2.39999 14.5601 0.703989C15.2641 0.223989 15.9681 -0.28801 16.8321 0.287991C17.5681 0.767992 18.2721 1.24799 19.0081 1.72799C21.8561 3.61599 24.7041 5.53599 27.5521 7.42399L30.7201 9.53599C30.9121 9.66399 31.1361 9.79199 31.3281 9.95199C31.7761 10.272 31.9681 10.72 31.9681 11.264V20.064C32.0001 20.416 32.0321 20.736 32.0001 21.056C32.0001 20.992 32.0001 21.088 32.0001 21.056ZM17.3761 28.064L28.1601 20.864L23.3601 17.632L17.3761 21.632V28.064ZM14.6241 28.064V21.664L8.67211 17.664L3.84011 20.864L14.6241 28.064ZM2.75211 18.304L6.17611 16L2.75211 13.696V18.304ZM14.6241 3.93599L3.84011 11.136L8.64011 14.368L14.5921 10.368V3.93599H14.6241ZM16.0001 12.736L11.1361 16L16.0001 19.264L20.8641 16L16.0001 12.736ZM17.3761 3.93599V10.336L23.3281 14.336L28.1281 11.104L17.3761 3.93599ZM29.2481 13.696L25.8241 16L29.2801 18.304L29.2481 13.696Z" fill="#5E5E5E"/>
</g>
<defs>
<clipPath id="clip0">
<rect width="32" height="32" transform="matrix(1 0 0 -1 0 32)" fill="white"/>
</clipPath>
</defs>
</svg>
