<svg width="30" height="30" viewBox="0 0 30 30" fill="none" xmlns="http://www.w3.org/2000/svg">
<g clip-path="url(#clip0)">
<path d="M2.87941 10.4801C3.2589 10.7479 4.40284 11.5432 6.31129 12.8657C8.21979 14.1882 9.68184 15.2065 10.6975 15.9206C10.8091 15.9989 11.0461 16.1691 11.4088 16.4313C11.7715 16.6938 12.0729 16.9059 12.3127 17.0677C12.5527 17.2294 12.8429 17.4108 13.1834 17.6116C13.5239 17.8123 13.8448 17.9632 14.1461 18.0631C14.4475 18.1639 14.7265 18.2138 14.9832 18.2138H15H15.0169C15.2735 18.2138 15.5526 18.1638 15.854 18.0631C16.1553 17.9632 16.4765 17.8121 16.8166 17.6116C17.1569 17.4106 17.4471 17.2293 17.6871 17.0677C17.9271 16.9059 18.2282 16.6938 18.5911 16.4313C18.9537 16.1688 19.191 15.9989 19.3026 15.9206C20.3292 15.2065 22.9411 13.3928 27.1374 10.4797C27.9521 9.91078 28.6327 9.22426 29.1795 8.42064C29.7267 7.61738 30 6.77471 30 5.89311C30 5.1564 29.7348 4.52577 29.2046 4.00126C28.6745 3.47664 28.0466 3.21448 27.3214 3.21448H2.67846C1.81914 3.21448 1.15784 3.50461 0.694668 4.08488C0.231556 4.66526 0 5.39072 0 6.26118C0 6.96429 0.307021 7.72621 0.92077 8.54648C1.53446 9.3668 2.18755 10.0114 2.87941 10.4801Z" fill="#5E5E5E"/>
<path d="M28.3257 12.2712C24.6654 14.7487 21.886 16.6741 19.9889 18.047C19.3528 18.5156 18.8367 18.8813 18.4404 19.1434C18.0441 19.4057 17.517 19.6736 16.8584 19.9469C16.2 20.2206 15.5864 20.357 15.0171 20.357H15.0001H14.9832C14.414 20.357 13.8001 20.2206 13.1417 19.9469C12.4834 19.6736 11.9559 19.4057 11.5597 19.1434C11.1636 18.8813 10.6474 18.5156 10.0113 18.047C8.50453 16.9422 5.73114 15.0167 1.69102 12.2712C1.0547 11.8474 0.491081 11.3616 0 10.8148V24.1069C0 24.8439 0.262164 25.4742 0.786785 25.9988C1.31129 26.5235 1.94198 26.7858 2.67864 26.7858H27.3216C28.0581 26.7858 28.6887 26.5235 29.2133 25.9988C29.738 25.474 30 24.844 30 24.1069V10.8148C29.5201 11.3503 28.9622 11.8361 28.3257 12.2712Z" fill="#5E5E5E"/>
</g>
<defs>
<clipPath id="clip0">
<rect width="30" height="30" fill="white"/>
</clipPath>
</defs>
</svg>
