<svg width="22" height="22" viewBox="0 0 22 22" fill="none" xmlns="http://www.w3.org/2000/svg">
<path d="M11 0C4.93423 0 0 4.93423 0 11C0 17.0658 4.93423 22 11 22C17.0658 22 22 17.0658 22 11C22 4.93423 17.0658 0 11 0ZM10.5417 18.3333C9.78343 18.3333 9.16665 17.7166 9.16665 16.9583C9.16665 16.2001 9.78343 15.5833 10.5417 15.5833C11.2999 15.5833 11.9167 16.2001 11.9167 16.9583C11.9167 17.7166 11.2999 18.3333 10.5417 18.3333ZM11.9167 12.742V14.2083C11.9167 14.4617 11.7116 14.6667 11.4583 14.6667H9.625C9.37166 14.6667 9.16665 14.4617 9.16665 14.2083V11.9167C9.16665 10.906 9.98933 10.0833 11 10.0833C12.0107 10.0833 12.8333 9.26067 12.8333 8.25C12.8333 7.23933 12.0107 6.41665 11 6.41665C9.98933 6.41665 9.16665 7.23933 9.16665 8.25V8.70835C9.16665 8.96169 8.96165 9.1667 8.7083 9.1667H6.875C6.62166 9.1667 6.41665 8.96169 6.41665 8.70835V8.25C6.41665 5.72288 8.47288 3.66665 11 3.66665C13.5271 3.66665 15.5833 5.72292 15.5833 8.25C15.5833 10.4495 14.0338 12.3133 11.9167 12.742Z" fill="#374A8D"/>
</svg>
